<svg xmlns="http://www.w3.org/2000/svg" width="121.6" height="88.933" viewBox="0 0 121.6 88.933">
  <g id="Group_4" data-name="Group 4" transform="translate(-166.796 -43.565)">
    <g id="Group_1" data-name="Group 1" transform="translate(166.796 43.565)">
      <path id="Path_1" data-name="Path 1" d="M228.07,43.758c3.221,0,6.454-.175,9.66.042a13.331,13.331,0,0,1,10.89,6.932c2.522,4.2,4.9,8.487,7.36,12.724a14.1,14.1,0,0,0,12.941,7.505c5.744.026,11.5-.346,17.229.2,6.729.636,11.818,5.953,12.6,12.9.7,6.2-3.472,12.633-9.571,14.756a14.251,14.251,0,0,1-16.737-5.822c-2.677-4.352-5.144-8.832-7.706-13.253a14.008,14.008,0,0,0-12.946-7.477q-15.564.03-31.127,0c-7.614-.018-13.459-4.554-14.818-11.427-1.808-9.149,4.723-16.964,14.441-17.231,2.592-.072,5.188-.011,7.782-.011Z" transform="translate(-177.23 -43.565)" fill="#fff"/>
      <path id="Path_2" data-name="Path 2" d="M195.348,95.468A14.276,14.276,0,1,1,181.161,81.04,14.345,14.345,0,0,1,195.348,95.468Z" transform="translate(-166.796 -53.656)" fill="#fff"/>
    </g>
    <g id="Group_2" data-name="Group 2" transform="translate(167.274 112.894)">
      <path id="Path_3" data-name="Path 3" d="M181.6,142.052h-4.189v13.772a2.532,2.532,0,0,1-.531,1.765,1.779,1.779,0,0,1-1.371.575,1.8,1.8,0,0,1-1.39-.582,2.517,2.517,0,0,1-.536-1.759V142.052h-4.19a2.118,2.118,0,0,1-1.461-.433,1.469,1.469,0,0,1-.479-1.145,1.45,1.45,0,0,1,.5-1.163,2.155,2.155,0,0,1,1.442-.427H181.6a2.153,2.153,0,0,1,1.481.439,1.483,1.483,0,0,1,.484,1.151,1.452,1.452,0,0,1-.491,1.145A2.172,2.172,0,0,1,181.6,142.052Z" transform="translate(-167.45 -138.56)" fill="#fff"/>
      <path id="Path_4" data-name="Path 4" d="M194.393,154.885v2.949a2.274,2.274,0,0,1-.5,1.61,1.679,1.679,0,0,1-1.28.536,1.615,1.615,0,0,1-1.255-.543,2.318,2.318,0,0,1-.491-1.6v-9.828q0-2.38,1.719-2.38a1.435,1.435,0,0,1,1.267.556,3.067,3.067,0,0,1,.427,1.643,6.168,6.168,0,0,1,1.3-1.643,2.687,2.687,0,0,1,1.778-.556,4.556,4.556,0,0,1,2.16.556,1.662,1.662,0,0,1,1.047,1.475,1.4,1.4,0,0,1-.446,1.067,1.386,1.386,0,0,1-.964.42,4.411,4.411,0,0,1-.938-.24,4.361,4.361,0,0,0-1.312-.239,1.917,1.917,0,0,0-1.267.408,2.6,2.6,0,0,0-.763,1.209,8.459,8.459,0,0,0-.376,1.908Q194.393,153.294,194.393,154.885Z" transform="translate(-173.754 -140.376)" fill="#fff"/>
      <path id="Path_5" data-name="Path 5" d="M215,157.989v-.453a7.875,7.875,0,0,1-1.332,1.345,4.91,4.91,0,0,1-1.526.809,6.205,6.205,0,0,1-1.888.265,4.889,4.889,0,0,1-2.3-.531,3.87,3.87,0,0,1-1.571-1.461,6.462,6.462,0,0,1-.66-3.233v-7a2.282,2.282,0,0,1,.479-1.584,1.633,1.633,0,0,1,1.267-.524,1.68,1.68,0,0,1,1.293.531,2.248,2.248,0,0,1,.491,1.578v5.651a8.749,8.749,0,0,0,.207,2.063,2.474,2.474,0,0,0,.744,1.306,2.123,2.123,0,0,0,1.455.473,2.957,2.957,0,0,0,1.681-.531,3.092,3.092,0,0,0,1.151-1.384,11.1,11.1,0,0,0,.3-3.285v-4.293a2.244,2.244,0,0,1,.492-1.578,1.664,1.664,0,0,1,1.28-.531,1.634,1.634,0,0,1,1.267.524,2.282,2.282,0,0,1,.479,1.584v10.229a2.187,2.187,0,0,1-.459,1.513,1.636,1.636,0,0,1-2.38-.02A2.117,2.117,0,0,1,215,157.989Z" transform="translate(-177.757 -140.376)" fill="#fff"/>
      <path id="Path_6" data-name="Path 6" d="M238.855,155.364a4.094,4.094,0,0,1-2.813,4.08,9.406,9.406,0,0,1-3.381.536,8.247,8.247,0,0,1-3.259-.582,4.748,4.748,0,0,1-2-1.454,2.933,2.933,0,0,1-.647-1.752,1.358,1.358,0,0,1,.414-1,1.417,1.417,0,0,1,1.047-.414,1.226,1.226,0,0,1,.854.271,2.992,2.992,0,0,1,.569.763,3.866,3.866,0,0,0,1.3,1.41,3.927,3.927,0,0,0,2.063.465,2.983,2.983,0,0,0,1.739-.471,1.33,1.33,0,0,0,.679-1.08,1.468,1.468,0,0,0-.7-1.358,8.729,8.729,0,0,0-2.322-.815,19.269,19.269,0,0,1-2.967-.951,4.886,4.886,0,0,1-1.83-1.312,3,3,0,0,1-.685-2,3.534,3.534,0,0,1,.634-2,4.35,4.35,0,0,1,1.868-1.507,7.158,7.158,0,0,1,2.981-.563,9.774,9.774,0,0,1,2.463.285,6.167,6.167,0,0,1,1.824.763,3.751,3.751,0,0,1,1.111,1.06,2.075,2.075,0,0,1,.381,1.138,1.313,1.313,0,0,1-.407,1,1.613,1.613,0,0,1-1.157.388,1.419,1.419,0,0,1-.924-.311,6.128,6.128,0,0,1-.873-.931,3.185,3.185,0,0,0-.943-.828,2.978,2.978,0,0,0-1.475-.31,2.885,2.885,0,0,0-1.591.407,1.189,1.189,0,0,0-.634,1.015,1.1,1.1,0,0,0,.465.912,3.867,3.867,0,0,0,1.255.588q.788.233,2.172.569a11.632,11.632,0,0,1,2.683.957,4.468,4.468,0,0,1,1.578,1.312A2.913,2.913,0,0,1,238.855,155.364Z" transform="translate(-183.418 -140.376)" fill="#fff"/>
      <path id="Path_7" data-name="Path 7" d="M247.064,144.169h.388v-2.121q0-.854.045-1.338a1.973,1.973,0,0,1,.252-.835,1.58,1.58,0,0,1,.595-.588,1.683,1.683,0,0,1,.866-.227,1.744,1.744,0,0,1,1.216.5,1.5,1.5,0,0,1,.459.821,7.492,7.492,0,0,1,.1,1.377v2.4h1.293a1.657,1.657,0,0,1,1.144.356,1.172,1.172,0,0,1,.395.911,1.022,1.022,0,0,1-.563,1,3.645,3.645,0,0,1-1.61.285h-.66v6.491a10.393,10.393,0,0,0,.058,1.274,1.293,1.293,0,0,0,.311.724,1.059,1.059,0,0,0,.821.278,4.4,4.4,0,0,0,.84-.11,4.376,4.376,0,0,1,.828-.11,1.064,1.064,0,0,1,.769.343,1.152,1.152,0,0,1,.343.847,1.417,1.417,0,0,1-.931,1.306,6.294,6.294,0,0,1-2.677.452,4.628,4.628,0,0,1-2.509-.555,2.582,2.582,0,0,1-1.118-1.539,10.432,10.432,0,0,1-.265-2.625v-6.776h-.465a1.682,1.682,0,0,1-1.164-.362,1.182,1.182,0,0,1-.4-.919,1.139,1.139,0,0,1,.42-.911A1.845,1.845,0,0,1,247.064,144.169Z" transform="translate(-188.445 -138.608)" fill="#fff"/>
      <path id="Path_8" data-name="Path 8" d="M262.018,142.107a1.862,1.862,0,0,1-1.261-.452,1.756,1.756,0,0,1,.012-2.515,1.8,1.8,0,0,1,1.248-.485,1.857,1.857,0,0,1,1.216.439,1.572,1.572,0,0,1,.53,1.281,1.615,1.615,0,0,1-.517,1.274A1.788,1.788,0,0,1,262.018,142.107Zm1.746,3.646v10.2a2.278,2.278,0,0,1-.5,1.6,1.671,1.671,0,0,1-1.28.543,1.593,1.593,0,0,1-1.26-.555,2.346,2.346,0,0,1-.485-1.591v-10.1a2.264,2.264,0,0,1,.485-1.578,1.628,1.628,0,0,1,1.26-.531,1.691,1.691,0,0,1,1.28.531A2.054,2.054,0,0,1,263.764,145.753Z" transform="translate(-192.434 -138.498)" fill="#fff"/>
      <path id="Path_9" data-name="Path 9" d="M286.267,151.735a5.059,5.059,0,0,1-.446,1.959,7.06,7.06,0,0,1-1.4,2.069,7.149,7.149,0,0,1-2.444,1.649,8.8,8.8,0,0,1-3.465.633,12.128,12.128,0,0,1-2.729-.284,7.642,7.642,0,0,1-2.231-.886,7.546,7.546,0,0,1-1.843-1.583,9.445,9.445,0,0,1-1.28-2,10.368,10.368,0,0,1-.8-2.36,12.861,12.861,0,0,1-.265-2.664,11.83,11.83,0,0,1,.666-4.1,8.749,8.749,0,0,1,1.908-3.1,8.3,8.3,0,0,1,2.91-1.959,9.422,9.422,0,0,1,3.556-.673,8.883,8.883,0,0,1,4.1.919,7.42,7.42,0,0,1,2.754,2.27,4.482,4.482,0,0,1,.957,2.554,1.664,1.664,0,0,1-.466,1.164,1.477,1.477,0,0,1-1.125.5,1.553,1.553,0,0,1-1.106-.349,4.846,4.846,0,0,1-.821-1.2,5.779,5.779,0,0,0-1.765-2.107,4.308,4.308,0,0,0-2.5-.7,4.534,4.534,0,0,0-3.769,1.8,8.14,8.14,0,0,0-1.4,5.108,9.492,9.492,0,0,0,.62,3.679,4.646,4.646,0,0,0,1.759,2.191,4.852,4.852,0,0,0,2.664.724,4.673,4.673,0,0,0,2.8-.821,4.957,4.957,0,0,0,1.727-2.411,4.082,4.082,0,0,1,.607-1.222,1.373,1.373,0,0,1,1.164-.472,1.625,1.625,0,0,1,1.176.479A1.594,1.594,0,0,1,286.267,151.735Z" transform="translate(-194.892 -138.441)" fill="#fbb03b"/>
      <path id="Path_10" data-name="Path 10" d="M305.525,157.98a10.939,10.939,0,0,1-2.476,1.493,6.929,6.929,0,0,1-2.683.5,5.08,5.08,0,0,1-2.386-.536,3.924,3.924,0,0,1-1.584-1.454,3.778,3.778,0,0,1-.556-1.992,3.567,3.567,0,0,1,.918-2.47,4.594,4.594,0,0,1,2.522-1.371q.337-.078,1.668-.349t2.283-.5q.95-.226,2.063-.55a3.684,3.684,0,0,0-.563-2.05,2.514,2.514,0,0,0-2.062-.653,4.3,4.3,0,0,0-2.024.376,3.283,3.283,0,0,0-1.163,1.125q-.486.75-.685.989a1.122,1.122,0,0,1-.86.24,1.506,1.506,0,0,1-1.028-.382,1.242,1.242,0,0,1-.433-.976,2.985,2.985,0,0,1,.66-1.81,4.722,4.722,0,0,1,2.056-1.449,9.28,9.28,0,0,1,3.478-.569,9.85,9.85,0,0,1,3.66.549,3.4,3.4,0,0,1,1.882,1.74,7.607,7.607,0,0,1,.549,3.155q0,1.242-.007,2.108t-.019,1.927a7.094,7.094,0,0,0,.33,2.075,6.54,6.54,0,0,1,.33,1.39,1.3,1.3,0,0,1-.511.989,1.712,1.712,0,0,1-1.158.446,1.561,1.561,0,0,1-1.073-.51A7.626,7.626,0,0,1,305.525,157.98Zm-.232-5.109a17.761,17.761,0,0,1-2.257.6q-1.481.317-2.049.465a2.8,2.8,0,0,0-1.087.582,1.492,1.492,0,0,0-.517,1.209,1.789,1.789,0,0,0,.608,1.364,2.249,2.249,0,0,0,1.591.563,4.136,4.136,0,0,0,1.933-.459,3.067,3.067,0,0,0,1.3-1.183,5.412,5.412,0,0,0,.479-2.639Z" transform="translate(-202.021 -140.366)" fill="#fbb03b"/>
      <path id="Path_11" data-name="Path 11" d="M321.915,154.885v2.949a2.274,2.274,0,0,1-.5,1.61,1.679,1.679,0,0,1-1.28.536,1.615,1.615,0,0,1-1.255-.543,2.318,2.318,0,0,1-.491-1.6v-9.828q0-2.38,1.72-2.38a1.436,1.436,0,0,1,1.267.556,3.074,3.074,0,0,1,.427,1.643,6.2,6.2,0,0,1,1.3-1.643,2.688,2.688,0,0,1,1.779-.556,4.556,4.556,0,0,1,2.159.556,1.662,1.662,0,0,1,1.047,1.475,1.4,1.4,0,0,1-.446,1.067,1.386,1.386,0,0,1-.963.42,4.4,4.4,0,0,1-.938-.24,4.369,4.369,0,0,0-1.313-.239,1.917,1.917,0,0,0-1.267.408,2.609,2.609,0,0,0-.763,1.209,8.42,8.42,0,0,0-.375,1.908Q321.915,153.294,321.915,154.885Z" transform="translate(-208.092 -140.376)" fill="#fbb03b"/>
    </g>
  </g>
</svg>
